<svg id="visual" viewBox="0 0 1920 2450" width="1920" height="2450" xmlns="http://www.w3.org/2000/svg" xmlns:xlink="http://www.w3.org/1999/xlink" version="1.1"><g stroke-width="1" stroke-linejoin="bevel"><path d="M910 1285L528 1697.3L996 1547.3Z" fill="#635424" stroke="#635424"></path><path d="M910 1285L535 1178L528 1697.3Z" fill="#ad9232" stroke="#ad9232"></path><path d="M528 1697.3L875 1995.7L996 1547.3Z" fill="#372f1a" stroke="#372f1a"></path><path d="M528 1697.3L548 1996.7L875 1995.7Z" fill="#937c2d" stroke="#937c2d"></path><path d="M1512 1233L1010 909.7L910 1285Z" fill="#0c0c0c" stroke="#0c0c0c"></path><path d="M910 1285L1010 909.7L535 1178Z" fill="#221e14" stroke="#221e14"></path><path d="M1010 909.7L439 838.7L535 1178Z" fill="#221e14" stroke="#221e14"></path><path d="M0 1237L0 1689.3L528 1697.3Z" fill="#372f1a" stroke="#372f1a"></path><path d="M528 1697.3L0 2009.7L548 1996.7Z" fill="#372f1a" stroke="#372f1a"></path><path d="M875 1995.7L1430 1695.3L996 1547.3Z" fill="#7b6829" stroke="#7b6829"></path><path d="M996 1547.3L1512 1233L910 1285Z" fill="#ad9232" stroke="#ad9232"></path><path d="M0 1237L528 1697.3L535 1178Z" fill="#fcd43d" stroke="#fcd43d"></path><path d="M439 838.7L0 1237L535 1178Z" fill="#e1bd39" stroke="#e1bd39"></path><path d="M1430 1695.3L1512 1233L996 1547.3Z" fill="#372f1a" stroke="#372f1a"></path><path d="M0 1689.3L0 2009.7L528 1697.3Z" fill="#221e14" stroke="#221e14"></path><path d="M930 2450L1448 2048.7L875 1995.7Z" fill="#0c0c0c" stroke="#0c0c0c"></path><path d="M875 1995.7L1448 2048.7L1430 1695.3Z" fill="#fcd43d" stroke="#fcd43d"></path><path d="M1430 1695.3L1920 1592.3L1512 1233Z" fill="#7b6829" stroke="#7b6829"></path><path d="M930 2450L875 1995.7L548 1996.7Z" fill="#fcd43d" stroke="#fcd43d"></path><path d="M439 838.7L0 896.7L0 1237Z" fill="#372f1a" stroke="#372f1a"></path><path d="M464 2450L930 2450L548 1996.7Z" fill="#ad9232" stroke="#ad9232"></path><path d="M0 2009.7L464 2450L548 1996.7Z" fill="#372f1a" stroke="#372f1a"></path><path d="M1512 1233L1498 839.7L1010 909.7Z" fill="#635424" stroke="#635424"></path><path d="M1010 909.7L885 425.3L439 838.7Z" fill="#ad9232" stroke="#ad9232"></path><path d="M1489 461.3L885 425.3L1010 909.7Z" fill="#fcd43d" stroke="#fcd43d"></path><path d="M439 838.7L0 503.3L0 896.7Z" fill="#221e14" stroke="#221e14"></path><path d="M930 2450L1439 2450L1448 2048.7Z" fill="#e1bd39" stroke="#e1bd39"></path><path d="M1920 2113.7L1920 1592.3L1430 1695.3Z" fill="#7b6829" stroke="#7b6829"></path><path d="M0 2009.7L0 2450L464 2450Z" fill="#c6a736" stroke="#c6a736"></path><path d="M1920 2113.7L1430 1695.3L1448 2048.7Z" fill="#0c0c0c" stroke="#0c0c0c"></path><path d="M1512 1233L1920 1158L1498 839.7Z" fill="#937c2d" stroke="#937c2d"></path><path d="M885 425.3L425 323.3L439 838.7Z" fill="#635424" stroke="#635424"></path><path d="M425 323.3L0 503.3L439 838.7Z" fill="#7b6829" stroke="#7b6829"></path><path d="M1920 1592.3L1920 1158L1512 1233Z" fill="#e1bd39" stroke="#e1bd39"></path><path d="M1920 828.7L1489 461.3L1498 839.7Z" fill="#4d411f" stroke="#4d411f"></path><path d="M1498 839.7L1489 461.3L1010 909.7Z" fill="#372f1a" stroke="#372f1a"></path><path d="M885 425.3L889 0L425 323.3Z" fill="#4d411f" stroke="#4d411f"></path><path d="M1439 2450L1920 2113.7L1448 2048.7Z" fill="#635424" stroke="#635424"></path><path d="M1920 1158L1920 828.7L1498 839.7Z" fill="#372f1a" stroke="#372f1a"></path><path d="M1381 0L889 0L885 425.3Z" fill="#221e14" stroke="#221e14"></path><path d="M425 323.3L0 0L0 503.3Z" fill="#0c0c0c" stroke="#0c0c0c"></path><path d="M889 0L392 0L425 323.3Z" fill="#7b6829" stroke="#7b6829"></path><path d="M1439 2450L1920 2450L1920 2113.7Z" fill="#c6a736" stroke="#c6a736"></path><path d="M1920 828.7L1920 428.3L1489 461.3Z" fill="#635424" stroke="#635424"></path><path d="M1489 461.3L1381 0L885 425.3Z" fill="#0c0c0c" stroke="#0c0c0c"></path><path d="M1920 0L1381 0L1489 461.3Z" fill="#e1bd39" stroke="#e1bd39"></path><path d="M392 0L0 0L425 323.3Z" fill="#fcd43d" stroke="#fcd43d"></path><path d="M1920 428.3L1920 0L1489 461.3Z" fill="#e1bd39" stroke="#e1bd39"></path></g></svg>